Coordinates
version=1
nRows=11
nColumns=40
inDegrees=yes

Units are S.I. units (second, meters, Newtons, ...)
If the header above contains a line with 'inDegrees', this indicates whether rotational values are in degrees (yes) or radians (no).

endheader
time	pelvis_tilt	pelvis_list	pelvis_rotation	pelvis_tx	pelvis_ty	pelvis_tz	hip_flexion_r	hip_adduction_r	hip_rotation_r	knee_angle_r	knee_angle_r_beta	ankle_angle_r	subtalar_angle_r	mtp_angle_r	hip_flexion_l	hip_adduction_l	hip_rotation_l	knee_angle_l	knee_angle_l_beta	ankle_angle_l	subtalar_angle_l	mtp_angle_l	lumbar_extension	lumbar_bending	lumbar_rotation	arm_flex_r	arm_add_r	arm_rot_r	elbow_flex_r	pro_sup_r	wrist_flex_r	wrist_dev_r	arm_flex_l	arm_add_l	arm_rot_l	elbow_flex_l	pro_sup_l	wrist_flex_l	wrist_dev_l
      5.38000000	    -35.01371145	     -0.85160123	      7.12751070	      0.06794394	      0.64040041	     -1.16098064	     93.78271790	    -42.79679760	      0.55538215	     79.48735854	      1.38731612	     16.90235851	     -7.53062195	      0.00000000	     94.67875534	    -29.34005149	     -1.57103787	     74.75176333	      1.30466439	     14.77103965	      3.37878369	      0.00000000	      0.00000000	      0.00000000	      0.00000000	     44.99952665	    -15.00000209	     44.99952665	     75.00017585	     45.00000026	      0.00000000	      0.00000000	     44.99952665	    -15.00000209	     44.99952665	     75.00017585	     45.00000026	      0.00000000	      0.00000000
      5.38500000	    -35.09963566	     -0.82538577	      7.08681017	      0.06809880	      0.64225594	     -1.16106515	     93.54148028	    -42.73968969	      0.31732647	     79.09063964	      1.38039207	     16.81549935	     -7.44532370	      0.00000000	     94.42574164	    -29.33440419	     -1.77916651	     74.36946104	      1.29799196	     14.64318863	      3.39839629	      0.00000000	      0.00000000	      0.00000000	      0.00000000	     44.99952771	    -15.00000208	     44.99952771	     75.00017585	     45.00000026	      0.00000000	      0.00000000	     44.99952771	    -15.00000208	     44.99952771	     75.00017585	     45.00000026	      0.00000000	      0.00000000
      5.39000000	    -34.75923368	     -0.89832906	      7.19261489	      0.06884651	      0.64530396	     -1.16156225	     92.55848767	    -42.89936405	     -0.26927606	     78.60911891	      1.37198795	     16.76485823	     -7.35246463	      0.00000000	     93.74390930	    -29.24151764	     -1.97072608	     73.94872024	      1.29064865	     14.58433140	      3.46477058	      0.00000000	      0.00000000	      0.00000000	      0.00000000	     44.99953016	    -15.00000206	     44.99953016	     75.00017585	     45.00000026	      0.00000000	      0.00000000	     44.99953016	    -15.00000206	     44.99953016	     75.00017585	     45.00000026	      0.00000000	      0.00000000
      5.39500000	    -34.82049808	     -0.87009639	      7.15955816	      0.06919089	      0.64673871	     -1.16171356	     92.38019809	    -42.89979512	     -0.48061073	     78.33194026	      1.36715027	     16.65232551	     -7.30437887	      0.00000000	     93.56851301	    -29.29009107	     -2.19953348	     73.74845980	      1.28715344	     14.45811379	      3.43241250	      0.00000000	      0.00000000	      0.00000000	      0.00000000	     44.99953108	    -15.00000205	     44.99953108	     75.00017585	     45.00000026	      0.00000000	      0.00000000	     44.99953108	    -15.00000205	     44.99953108	     75.00017585	     45.00000026	      0.00000000	      0.00000000
      5.40000000	    -34.92653018	     -0.83086566	      7.13851366	      0.06928152	      0.64887523	     -1.16189411	     92.09520175	    -42.80094633	     -0.66361769	     77.81457002	      1.35812045	     16.52734628	     -7.28459948	      0.00000000	     93.24451039	    -29.21699443	     -2.42807748	     73.23184315	      1.27813678	     14.34473012	      3.50133359	      0.00000000	      0.00000000	      0.00000000	      0.00000000	     44.99953226	    -15.00000204	     44.99953226	     75.00017585	     45.00000026	      0.00000000	      0.00000000	     44.99953226	    -15.00000204	     44.99953226	     75.00017585	     45.00000026	      0.00000000	      0.00000000
      5.40500000	    -34.90498668	     -0.78047079	      7.18856716	      0.06969545	      0.65099289	     -1.16221030	     91.70577021	    -42.83057774	     -0.86012348	     77.38107963	      1.35055462	     16.37677362	     -7.31638852	      0.00000000	     92.82814647	    -29.14051912	     -2.72494522	     72.82119513	      1.27096962	     14.27526893	      3.55322173	      0.00000000	      0.00000000	      0.00000000	      0.00000000	     44.99953349	    -15.00000203	     44.99953349	     75.00017585	     45.00000026	      0.00000000	      0.00000000	     44.99953349	    -15.00000203	     44.99953349	     75.00017585	     45.00000026	      0.00000000	      0.00000000
      5.41000000	    -34.91733948	     -0.73461100	      7.13772830	      0.07011014	      0.65240474	     -1.16236363	     91.50608205	    -42.82921400	     -1.06319652	     77.12358010	      1.34606040	     16.24982404	     -7.27518676	      0.00000000	     92.60951717	    -29.20191293	     -2.94090925	     72.66556509	      1.26825336	     14.14332769	      3.50114209	      0.00000000	      0.00000000	      0.00000000	      0.00000000	     44.99953443	    -15.00000202	     44.99953443	     75.00017585	     45.00000026	      0.00000000	      0.00000000	     44.99953443	    -15.00000202	     44.99953443	     75.00017585	     45.00000026	      0.00000000	      0.00000000
      5.41500000	    -34.33791954	     -0.72516605	      7.27022300	      0.07116932	      0.65619879	     -1.16281937	     90.21020274	    -42.99118488	     -1.61601256	     76.55495310	      1.33613599	     16.23798724	     -7.12786797	      0.00000000	     91.51960723	    -29.10396472	     -3.27351426	     72.10434194	      1.25845817	     14.17029126	      3.72029970	      0.00000000	      0.00000000	      0.00000000	      0.00000000	     44.99953683	    -15.00000200	     44.99953683	     75.00017585	     45.00000026	      0.00000000	      0.00000000	     44.99953683	    -15.00000200	     44.99953683	     75.00017585	     45.00000026	      0.00000000	      0.00000000
      5.42000000	    -34.42262647	     -0.70200964	      7.24333406	      0.07149762	      0.65782891	     -1.16302221	     89.98576155	    -42.93869201	     -1.80124274	     76.17743234	      1.32954701	     16.11178833	     -7.11696153	      0.00000000	     91.29583052	    -29.09688223	     -3.48384888	     71.77680555	      1.25274158	     14.06374639	      3.74523308	      0.00000000	      0.00000000	      0.00000000	      0.00000000	     44.99953793	    -15.00000199	     44.99953793	     75.00017585	     45.00000026	      0.00000000	      0.00000000	     44.99953793	    -15.00000199	     44.99953793	     75.00017585	     45.00000026	      0.00000000	      0.00000000
      5.42500000	    -34.46644433	     -0.66646717	      7.26420471	      0.07188353	      0.65951615	     -1.16331141	     89.72502737	    -42.94784555	     -1.97189685	     75.80770098	      1.32309398	     15.98222642	     -7.09236272	      0.00000000	     91.01652150	    -29.03909388	     -3.70623781	     71.44874225	      1.24701580	     13.97927789	      3.78872872	      0.00000000	      0.00000000	      0.00000000	      0.00000000	     44.99953897	    -15.00000198	     44.99953897	     75.00017585	     45.00000026	      0.00000000	      0.00000000	     44.99953897	    -15.00000198	     44.99953897	     75.00017585	     45.00000026	      0.00000000	      0.00000000
      5.43000000	    -34.01907480	     -0.70473666	      7.37312059	      0.07293126	      0.66247943	     -1.16382687	     88.66259180	    -43.12188343	     -2.53611619	     75.37176971	      1.31548554	     15.93481949	     -6.97519529	      0.00000000	     90.22556588	    -28.97586305	     -3.92366479	     71.08239927	      1.24062191	     13.98233517	      3.93652175	      0.00000000	      0.00000000	      0.00000000	      0.00000000	     44.99954175	    -15.00000196	     44.99954175	     75.00017585	     45.00000026	      0.00000000	      0.00000000	     44.99954175	    -15.00000196	     44.99954175	     75.00017585	     45.00000026	      0.00000000	      0.00000000
